<svg width="163" height="43" viewBox="0 0 163 43" fill="none" xmlns="http://www.w3.org/2000/svg">
<path d="M32.5275 37.8383L32.4717 37.8403C32.4903 37.8403 32.5089 37.8403 32.5275 37.8383Z" fill="url(#paint0_linear_0_1)"/>
<path d="M50.6341 33.4876L50.5859 33.4897C50.6027 33.4897 50.6174 33.4897 50.6341 33.4876Z" fill="url(#paint1_linear_0_1)"/>
<path d="M52.9999 26.4524C52.8966 24.1523 52.6052 20.7011 50.2285 20.7454C46.1096 20.8218 39.5438 22.0212 29.3757 22.5806L51.1978 19.1456C45.9773 12.7543 42.1168 13.0884 33.8128 12.7905C25.8768 12.3539 20.0281 15.1068 16.4569 18.7592C17.7134 18.7592 18.9307 18.3245 19.8938 17.5417C25.0646 13.3399 29.9482 13.684 37.5122 13.9134C36.0655 16.3605 34.5569 19.7915 31.0828 19.6285C31.0828 19.6265 16.3081 19.4856 16.2915 19.4836C12.431 19.375 8.23149 21.3209 4.7822 22.4478C3.14952 23.0455 1.80618 24.2268 1.00431 25.734C1.33911 26.1003 1.88885 26.7502 3.11646 26.8026L12.0982 27.1588C17.0541 27.4425 22.5412 26.6355 27.4495 25.8869C27.1561 26.0862 26.7841 27.3721 26.3294 27.6075C25.139 28.2273 23.1302 29.0182 20.3195 29.2757C19.3006 29.3683 18.3624 29.7326 17.4489 30.3825C14.9895 32.6786 6.41488 30.9239 3.41406 31.0989C0.582707 30.6462 1.71938 28.4768 0.504173 28.0422C-0.188164 31.3203 0.0433036 32.8376 0.0143701 34.4113C0.510373 33.0489 1.90125 32.1615 4.063 32.1675C4.869 32.1715 15.0123 32.8396 15.7108 32.8618C16.6697 32.902 17.5171 33.2139 18.4016 33.5701C24.1449 35.5322 26.5712 35.6972 29.4914 35.512C28.5118 32.2983 28.7164 25.9151 32.5914 25.1303C33.5214 25.1303 34.4122 25.8286 35.0942 27.0823C35.5406 27.9295 36.4809 28.4185 37.4502 28.2837L48.2507 26.714C50.305 26.6074 50.586 20.3147 52.9999 26.4524ZM36.9893 17.6826L38.7563 14.0241C46.618 14.5856 48.9575 18.2641 48.9575 18.2641L38.4236 19.6668C37.2931 19.8177 36.4603 18.6646 36.9893 17.6826Z" fill="url(#paint2_linear_0_1)"/>
<path d="M31.6328 6.9386L34.4704 11.8326H37.3472L31.6328 6.9386Z" fill="url(#paint3_linear_0_1)"/>
<path d="M51.1956 24.4702C50.7946 24.4682 50.4454 24.9914 50.2201 25.8084C49.9556 26.7744 49.0999 27.4888 48.0769 27.6477L36.7309 29.4126C35.774 29.5615 34.8523 29.0624 34.4493 28.2152C33.9698 27.207 33.3353 26.547 32.6616 26.4886C31.7874 26.4121 31.0516 27.3177 30.6424 28.7767C30.506 29.2657 30.7189 29.9599 31 29.9378L32.2875 29.8392C32.583 29.817 32.86 30.3302 32.9075 30.9802L33.0832 33.389C33.1287 34.0168 32.9365 34.5682 32.6512 34.6226L31.4092 34.86C31.1446 34.9103 31.0434 35.5925 31.2459 35.995C31.8287 37.1541 32.6037 37.7679 33.3746 37.5626C34.1331 37.3594 34.7386 36.3854 35.0672 35.027C35.247 34.2805 35.8505 33.6928 36.6193 33.5017L48.8747 30.4489C49.5381 30.2839 50.247 30.5536 50.5735 31.1311C50.805 31.5416 51.0819 31.7449 51.3671 31.6684C52.0264 31.4933 52.5141 29.8714 52.4852 27.9959C52.4521 26.0741 51.892 24.4763 51.1956 24.4702ZM36.5449 31.445C36.4581 30.9742 36.7805 30.5214 37.2682 30.4328L48.1968 28.4507C48.5936 28.3903 48.9635 28.6539 49.0193 29.0363C49.071 29.3884 48.8375 29.7225 48.4799 29.811L37.6175 32.1333C37.1215 32.2399 36.6358 31.928 36.5449 31.445ZM51.3216 29.7647C51.0075 29.8271 50.7285 29.1469 50.7037 28.2374C50.6789 27.3157 50.9228 26.5429 51.2452 26.5188C51.5593 26.4967 51.8197 27.201 51.8383 28.0864C51.8548 28.9578 51.6275 29.7044 51.3216 29.7647Z" fill="url(#paint4_linear_0_1)"/>
<path d="M48.9846 35.5342L29.8802 40.2451C27.6606 40.7925 25.3377 40.7925 23.1181 40.2451L4.01367 35.5342L21.5536 42.1065C24.7363 43.2999 28.262 43.2999 31.4447 42.1065L48.9846 35.5342Z" fill="url(#paint5_linear_0_1)"/>
<path d="M48.4161 15.1732C48.0627 14.9619 47.7733 14.664 47.5791 14.3078C44.6754 8.94894 38.8969 5.29652 32.2402 5.29652C25.3065 5.29652 19.3234 9.26086 16.552 14.988C15.6261 16.8998 13.8901 18.3225 11.7842 18.8316L4.05273 21.343C4.83601 9.79011 14.7375 0 26.8027 0C36.8654 0 45.4049 6.35904 48.4161 15.1732Z" fill="url(#paint6_linear_0_1)"/>
<path d="M42.4 6.02298C38.3245 2.29006 32.8375 0 26.8027 0C14.7375 0 4.83601 9.79011 4.05273 21.343C4.05273 21.343 17.8251 -6.45966 42.4 6.02298Z" fill="url(#paint7_linear_0_1)"/>
<path d="M67.304 27V23.336L72.072 16.28H69.944L67.432 20.088L66.552 21.448H66.424L65.528 20.088L63 16.28H60.888L65.592 23.304V27H67.304ZM81.6159 27C83.8239 27 85.0559 25.88 85.0559 24.04C85.0559 22.632 84.1599 21.64 82.3359 21.432V21.32C83.9679 21.128 84.6719 20.184 84.6719 18.92C84.6719 17.224 83.4399 16.28 81.3919 16.28H75.3919V27H81.6159ZM77.1039 17.832H81.1999C82.3999 17.832 82.9599 18.296 82.9599 19.304C82.9599 20.312 82.3519 20.776 81.1519 20.776H77.1039V17.832ZM77.1039 22.2H81.4239C82.6879 22.2 83.3279 22.68 83.3279 23.8C83.3279 24.968 82.7039 25.448 81.4239 25.448H77.1039V22.2ZM87.903 18.12V16.28H86.175V18.12H87.903ZM87.903 27V19.048H86.175V27H87.903ZM91.2311 27V16.28H89.5031V27H91.2311ZM96.8953 27.16C99.5513 27.16 101.327 25.48 101.327 23.032C101.327 20.552 99.5513 18.888 96.8953 18.888C94.2553 18.888 92.4793 20.552 92.4793 23.032C92.4793 25.48 94.2553 27.16 96.8953 27.16ZM96.8953 25.624C94.9753 25.624 94.1753 24.712 94.1753 23.032C94.1753 21.336 94.9753 20.408 96.8953 20.408C98.8313 20.408 99.6313 21.336 99.6313 23.032C99.6313 24.712 98.8313 25.624 96.8953 25.624ZM105.893 27.16C107.941 27.16 108.997 25.88 109.253 24.536H109.349V27H110.933V19.048H109.221V22.984C109.221 24.712 108.405 25.608 106.645 25.608C104.965 25.608 104.277 24.856 104.277 23.368V19.048H102.565V23.832C102.565 25.672 103.653 27.16 105.893 27.16ZM117.719 27V25.448H116.279C115.287 25.448 114.839 25.192 114.839 24.216V20.488H117.719V19.048H114.839V17.304H113.127V19.048H111.783V20.488H113.127V24.312C113.127 26.248 114.183 27 115.895 27H117.719ZM120.528 27V16.28H118.8V27H120.528ZM126.128 27.16C128.496 27.16 130.16 25.992 130.16 24.296V24.152H128.432V24.28C128.432 25.224 127.744 25.768 126.08 25.768C124.24 25.768 123.488 24.952 123.424 23.416H130.176C130.224 23.176 130.24 22.952 130.24 22.664C130.24 20.248 128.56 18.888 126.096 18.888C123.504 18.888 121.808 20.552 121.808 23.032C121.808 25.688 123.52 27.16 126.128 27.16ZM126.064 20.248C127.76 20.248 128.608 20.952 128.608 22.424V22.456H123.44C123.536 21.032 124.304 20.248 126.064 20.248ZM136.75 27V25.448H135.31C134.318 25.448 133.87 25.192 133.87 24.216V20.488H136.75V19.048H133.87V17.304H132.158V19.048H130.814V20.488H132.158V24.312C132.158 26.248 133.214 27 134.926 27H136.75Z" fill="black"/>
<path d="M141.686 27L142.918 24.216H148.582L149.814 27H151.766L146.982 16.28H144.55L139.766 27H141.686ZM145.062 19.4L145.686 17.88H145.814L146.438 19.4L147.894 22.664H143.606L145.062 19.4ZM158.71 27C160.918 27 162.15 25.88 162.15 24.04C162.15 22.632 161.254 21.64 159.43 21.432V21.32C161.062 21.128 161.766 20.184 161.766 18.92C161.766 17.224 160.534 16.28 158.486 16.28H152.486V27H158.71ZM154.198 17.832H158.294C159.494 17.832 160.054 18.296 160.054 19.304C160.054 20.312 159.446 20.776 158.246 20.776H154.198V17.832ZM154.198 22.2H158.518C159.782 22.2 160.422 22.68 160.422 23.8C160.422 24.968 159.798 25.448 158.518 25.448H154.198V22.2Z" fill="#D21B1B"/>
<defs>
<linearGradient id="paint0_linear_0_1" x1="32.471" y1="37.8392" x2="32.5278" y2="37.8392" gradientUnits="userSpaceOnUse">
<stop stop-color="#54D1F6"/>
<stop offset="0.5076" stop-color="#338CDE"/>
<stop offset="1" stop-color="#1459C6"/>
</linearGradient>
<linearGradient id="paint1_linear_0_1" x1="50.5857" y1="33.4891" x2="50.634" y2="33.4891" gradientUnits="userSpaceOnUse">
<stop stop-color="#54D1F6"/>
<stop offset="0.5076" stop-color="#338CDE"/>
<stop offset="1" stop-color="#1459C6"/>
</linearGradient>
<linearGradient id="paint2_linear_0_1" x1="6.34852" y1="16.6412" x2="44.4388" y2="35.597" gradientUnits="userSpaceOnUse">
<stop stop-color="#1D2B66"/>
<stop offset="0.0182" stop-color="#1C2A65"/>
<stop offset="0.4021" stop-color="#121C49"/>
<stop offset="0.7419" stop-color="#0B1439"/>
<stop offset="1" stop-color="#091133"/>
</linearGradient>
<linearGradient id="paint3_linear_0_1" x1="37.4418" y1="13.3441" x2="32.1405" y2="7.82988" gradientUnits="userSpaceOnUse">
<stop stop-color="#1D2B66"/>
<stop offset="0.0182" stop-color="#1C2A65"/>
<stop offset="0.4021" stop-color="#121C49"/>
<stop offset="0.7419" stop-color="#0B1439"/>
<stop offset="1" stop-color="#091133"/>
</linearGradient>
<linearGradient id="paint4_linear_0_1" x1="49.9811" y1="35.1884" x2="29.6023" y2="23.9445" gradientUnits="userSpaceOnUse">
<stop stop-color="#AF1414"/>
<stop offset="1" stop-color="#E51F1F"/>
</linearGradient>
<linearGradient id="paint5_linear_0_1" x1="25.9301" y1="33.9619" x2="36.3924" y2="64.4055" gradientUnits="userSpaceOnUse">
<stop stop-color="#1D2B66"/>
<stop offset="0.7378" stop-color="#0F1841"/>
<stop offset="1" stop-color="#091133"/>
</linearGradient>
<linearGradient id="paint6_linear_0_1" x1="40.361" y1="25.3334" x2="9.1085" y2="2.66156" gradientUnits="userSpaceOnUse">
<stop stop-color="#AF1414"/>
<stop offset="1" stop-color="#E51F1F"/>
</linearGradient>
<linearGradient id="paint7_linear_0_1" x1="36.9596" y1="0.199404" x2="0.36851" y2="21.1605" gradientUnits="userSpaceOnUse">
<stop stop-color="#AF1414"/>
<stop offset="1" stop-color="white"/>
</linearGradient>
</defs>
</svg>
