<svg width="22" height="22" viewBox="0 0 22 22" fill="none" xmlns="http://www.w3.org/2000/svg">
<path d="M10.9869 0C12.5113 0 13.9395 0.289128 15.2712 0.867383C16.6029 1.44564 17.7682 2.22979 18.767 3.21983C19.7658 4.20988 20.5544 5.37077 21.1326 6.70251C21.7109 8.03425 22 9.46237 22 10.9869C22 12.5113 21.7109 13.9395 21.1326 15.2712C20.5544 16.6029 19.7658 17.7682 18.767 18.767C17.7682 19.7658 16.6029 20.5544 15.2712 21.1326C13.9395 21.7109 12.5113 22 10.9869 22C9.46237 22 8.03425 21.7109 6.70251 21.1326C5.37077 20.5544 4.20988 19.7658 3.21983 18.767C2.22979 17.7682 1.44564 16.6029 0.867383 15.2712C0.289128 13.9395 0 12.5113 0 10.9869C0 9.46237 0.289128 8.03425 0.867383 6.70251C1.44564 5.37077 2.22979 4.20988 3.21983 3.21983C4.20988 2.22979 5.37077 1.44564 6.70251 0.867383C8.03425 0.289128 9.46237 0 10.9869 0ZM7.56989 8.25329H4.81004V17.19H7.56989V8.25329ZM6.17682 7.54361C6.56233 7.54361 6.89088 7.41219 7.16249 7.14934C7.43409 6.8865 7.56989 6.56233 7.56989 6.17682C7.56989 5.79132 7.43409 5.46714 7.16249 5.2043C6.89088 4.94146 6.56233 4.81004 6.17682 4.81004C5.79132 4.81004 5.46714 4.94146 5.2043 5.2043C4.94146 5.46714 4.81004 5.79132 4.81004 6.17682C4.81004 6.56233 4.94146 6.8865 5.2043 7.14934C5.46714 7.41219 5.79132 7.54361 6.17682 7.54361ZM17.19 12.0119C17.19 11.3811 17.0147 10.7634 16.6643 10.1589C16.3138 9.55436 15.8582 9.09438 15.2975 8.77897C14.7893 8.49861 14.1979 8.34966 13.5233 8.33214C12.8487 8.31462 12.231 8.42851 11.6703 8.67383V8.25329H8.93668V17.19H11.6703V11.7228L12.8268 11.1708C12.9669 11.1008 13.1553 11.0657 13.3919 11.0657C13.6284 11.0657 13.8168 11.1095 13.957 11.1971C14.0621 11.2497 14.1673 11.3636 14.2724 11.5388C14.3775 11.7141 14.4301 11.8718 14.4301 12.0119V17.19H17.19V12.0119Z" fill="white"/>
</svg>
