<svg width="21" height="16" viewBox="0 0 21 16" fill="none" xmlns="http://www.w3.org/2000/svg">
<path d="M2.64418 0.799988H18.5442C20.0442 0.799988 20.8002 1.50799 20.8002 2.94799V13.052C20.8002 14.48 20.0442 15.2 18.5442 15.2H2.64418C1.14418 15.2 0.388184 14.48 0.388184 13.052V2.94799C0.388184 1.50799 1.14418 0.799988 2.64418 0.799988ZM10.5882 11.12L18.6762 4.48399C18.9642 4.24399 19.1922 3.69199 18.8322 3.19999C18.4842 2.70799 17.8482 2.69599 17.4282 2.99599L10.5882 7.62799L3.76018 2.99599C3.34018 2.69599 2.70418 2.70799 2.35618 3.19999C1.99618 3.69199 2.22418 4.24399 2.51218 4.48399L10.5882 11.12Z" fill="white"/>
</svg>
