<svg width="28" height="24" viewBox="0 0 28 24" fill="none" xmlns="http://www.w3.org/2000/svg">
<path d="M19.2105 12.4946H25.4638C25.3572 18.7213 24.1305 19.748 20.3038 22.0146C19.8638 22.2813 19.7172 22.8413 19.9838 23.2946C20.2505 23.7346 20.8105 23.8813 21.2638 23.6146C25.7705 20.948 27.3438 19.3213 27.3438 11.5613V4.37464C27.3438 2.09464 25.4905 0.254639 23.2238 0.254639L19.2238 0.254639C16.8772 0.254639 15.1038 2.02797 15.1038 4.37464V8.37464C15.0905 10.7213 16.8638 12.4946 19.2105 12.4946ZM4.7865 12.4946H11.0398C10.9332 18.7213 9.7065 19.748 5.87984 22.0146C5.43984 22.2813 5.29317 22.8413 5.55984 23.2946C5.8265 23.7346 6.3865 23.8813 6.83984 23.6146C11.3465 20.948 12.9198 19.3213 12.9198 11.5613V4.37464C12.9198 2.09464 11.0665 0.254639 8.79984 0.254639L4.79984 0.254639C2.43984 0.254639 0.666504 2.02797 0.666504 4.37464L0.666504 8.37464C0.666504 10.7213 2.43984 12.4946 4.7865 12.4946Z" fill="#011A2D"/>
</svg>
