<svg width="20" height="20" viewBox="0 0 20 20" fill="none" xmlns="http://www.w3.org/2000/svg">
<path fill-rule="evenodd" clip-rule="evenodd" d="M10 0C4.48 0 0 4.48 0 10C0 15.52 4.48 20 10 20C15.52 20 20 15.52 20 10C20 4.48 15.52 0 10 0ZM15.31 13.31C15.02 13.47 14.78 13.54 14.58 13.59C14.41 13.63 14.27 13.67 14.15 13.75C14.02 13.83 14.01 13.96 13.99 14.08C13.97 14.19 13.96 14.28 13.88 14.34C13.79 14.4 13.62 14.41 13.39 14.42C13.09 14.44 12.71 14.45 12.25 14.59C12.03 14.67 11.83 14.79 11.63 14.91C11.23 15.16 10.78 15.43 9.99 15.43C9.21 15.43 8.76 15.16 8.36 14.91C8.16 14.78 7.96 14.66 7.73 14.58C7.35981 14.4703 6.97608 14.4131 6.59 14.41C6.36 14.4 6.2 14.39 6.1 14.33C6.02 14.28 6.01 14.18 5.99 14.07C5.97 13.95 5.96 13.82 5.83 13.74C5.71 13.66 5.56 13.62 5.4 13.57C5.2 13.52 4.96 13.46 4.67 13.3C4.33 13.11 4.53 13 4.64 12.94C6.57 12.01 6.87 10.57 6.88 10.46V10.44C6.9 10.32 6.91 10.22 6.77 10.09C6.68 10 6.37 9.8 6.12 9.64C6.01 9.56 5.91 9.5 5.85 9.47C5.57 9.27 5.45 9.08 5.54 8.83C5.6 8.66 5.76 8.6 5.92 8.6C5.97 8.6 6.03 8.61 6.07 8.62C6.25 8.66 6.43 8.73 6.59 8.79C6.7 8.84 6.79 8.87 6.86 8.89C6.88 8.9 6.91 8.9 6.92 8.9C7.02 8.9 7.05 8.85 7.04 8.75C7.04 8.72 7.04 8.69 7.03 8.66C7.01 8.31 6.98 7.7 7.02 7.14C7.1 6.3 7.37 5.87 7.69 5.51C7.85 5.33 8.58 4.56 9.97 4.56C11.37 4.56 12.09 5.33 12.25 5.5C12.57 5.87 12.84 6.29 12.92 7.14C12.97 7.73 12.93 8.36 12.9 8.71V8.74C12.89 8.85 12.92 8.89 13.02 8.89C13.04 8.89 13.06 8.89 13.08 8.88C13.15 8.86 13.24 8.83 13.35 8.79C13.5 8.73 13.68 8.66 13.87 8.62C13.92 8.6 13.97 8.6 14.02 8.6C14.19 8.6 14.34 8.67 14.4 8.84C14.49 9.08 14.37 9.27 14.09 9.47C14.04 9.51 13.94 9.58 13.82 9.64C13.58 9.8 13.26 10 13.17 10.09C13.03 10.22 13.04 10.32 13.06 10.44V10.46C13.08 10.57 13.38 12.01 15.3 12.94C15.45 13 15.65 13.12 15.31 13.31Z" fill="white"/>
</svg>
