<svg width="24" height="23" viewBox="0 0 24 23" fill="none" xmlns="http://www.w3.org/2000/svg">
<path d="M11.4411 19.0984C11.7589 18.9066 12.1567 18.9066 12.4745 19.0984L17.9367 22.3952C18.694 22.8523 19.6283 22.1733 19.4273 21.3119L17.9778 15.0983C17.8934 14.7368 18.0163 14.3583 18.2968 14.1153L23.1242 9.93333C23.7928 9.35412 23.4354 8.25586 22.554 8.18108L16.1998 7.64199C15.8302 7.61064 15.5084 7.3773 15.3636 7.0358L12.8785 1.17237C12.5339 0.359341 11.3817 0.359341 11.0371 1.17237L8.55197 7.0358C8.40723 7.3773 8.08537 7.61064 7.71579 7.64199L1.36163 8.18108C0.480204 8.25586 0.122797 9.35412 0.791395 9.93333L5.61875 14.1153C5.89932 14.3583 6.02216 14.7368 5.93783 15.0983L4.48829 21.3118C4.28733 22.1733 5.22156 22.8523 5.97888 22.3952L11.4411 19.0984Z" fill="#08B461"/>
</svg>
