<svg width="22" height="22" viewBox="0 0 22 22" fill="none" xmlns="http://www.w3.org/2000/svg">
<path d="M10.9869 0C12.5113 0 13.9395 0.289128 15.2712 0.867383C16.6029 1.44564 17.7682 2.22979 18.767 3.21983C19.7658 4.20988 20.5544 5.37077 21.1326 6.70251C21.7109 8.03425 22 9.46237 22 10.9869C22 12.5113 21.7109 13.9395 21.1326 15.2712C20.5544 16.6029 19.7658 17.7682 18.767 18.767C17.7682 19.7658 16.6029 20.5544 15.2712 21.1326C13.9395 21.7109 12.5113 22 10.9869 22C9.46237 22 8.03425 21.7109 6.70251 21.1326C5.37077 20.5544 4.20988 19.7658 3.21983 18.767C2.22979 17.7682 1.44564 16.6029 0.867383 15.2712C0.289128 13.9395 0 12.5113 0 10.9869C0 9.46237 0.289128 8.03425 0.867383 6.70251C1.44564 5.37077 2.22979 4.20988 3.21983 3.21983C4.20988 2.22979 5.37077 1.44564 6.70251 0.867383C8.03425 0.289128 9.46237 0 10.9869 0ZM16.454 8.62127C16.9622 8.23576 17.409 7.77141 17.7945 7.2282C17.5492 7.33333 17.2995 7.42095 17.0454 7.49104C16.7913 7.56113 16.5241 7.6137 16.2437 7.64875C16.5241 7.47352 16.7694 7.25886 16.9797 7.00478C17.19 6.7507 17.3389 6.47471 17.4265 6.17682C17.1637 6.31701 16.8921 6.44405 16.6117 6.55794C16.3313 6.67184 16.0422 6.75508 15.7443 6.80765C15.499 6.56233 15.2099 6.36081 14.8769 6.20311C14.544 6.0454 14.176 5.96655 13.773 5.96655C13.405 5.96655 13.0589 6.03664 12.7348 6.17682C12.4106 6.31701 12.1302 6.50976 11.8937 6.75508C11.6571 7.0004 11.4687 7.28515 11.3286 7.60932C11.1884 7.93349 11.1183 8.27957 11.1183 8.64755C11.1183 8.75269 11.1227 8.85783 11.1314 8.96296C11.1402 9.0681 11.1533 9.16448 11.1708 9.25209C10.0669 9.19952 9.04182 8.92792 8.09558 8.43728C7.14934 7.94663 6.34329 7.28953 5.67742 6.46595C5.4321 6.86898 5.30944 7.31581 5.30944 7.80645C5.30944 8.26205 5.41896 8.68698 5.63799 9.08124C5.85703 9.47551 6.14178 9.7953 6.49223 10.0406C6.03664 10.0056 5.63361 9.89168 5.28315 9.69892V9.72521C5.28315 10.3911 5.48905 10.965 5.90084 11.4468C6.31262 11.9287 6.82517 12.231 7.43847 12.3536C7.31581 12.3887 7.19753 12.415 7.08363 12.4325C6.96973 12.45 6.85145 12.4588 6.72879 12.4588C6.64118 12.4588 6.55794 12.4544 6.47909 12.4456C6.40024 12.4369 6.31701 12.4237 6.22939 12.4062C6.40462 12.9319 6.71565 13.37 7.16249 13.7204C7.60932 14.0709 8.13062 14.2461 8.7264 14.2461C8.27081 14.6141 7.75826 14.8988 7.18877 15.1004C6.61928 15.3019 6.02788 15.4026 5.41458 15.4026C5.29192 15.4026 5.17802 15.3982 5.07288 15.3895C4.96774 15.3807 4.8626 15.3676 4.75747 15.3501C5.35325 15.7356 5.99721 16.0335 6.68937 16.2437C7.38152 16.454 8.10434 16.5591 8.85783 16.5591C10.0844 16.5591 11.1708 16.327 12.1171 15.8626C13.0633 15.3982 13.8562 14.8025 14.4958 14.0753C15.1354 13.3481 15.6217 12.5333 15.9546 11.6308C16.2875 10.7284 16.454 9.83911 16.454 8.96296V8.62127Z" fill="white"/>
</svg>
